<?xml version="1.0" encoding="utf-8"?>
<!-- Generator: Adobe Illustrator 18.1.0, SVG Export Plug-In . SVG Version: 6.00 Build 0)  -->
<!DOCTYPE svg PUBLIC "-//W3C//DTD SVG 1.1//EN" "http://www.w3.org/Graphics/SVG/1.1/DTD/svg11.dtd">
<svg version="1.1" id="Layer_1" xmlns="http://www.w3.org/2000/svg" xmlns:xlink="http://www.w3.org/1999/xlink" x="0px" y="0px"
	 viewBox="0 0 950 200" enable-background="new 0 0 950 200" xml:space="preserve">
<g>
	<path fill="#1A9AD3" d="M156.1,78c0,33.8-21.7,63.4-53.9,73.5c-0.7,0.2-1.5,0.3-2.2,0.3c-3.1,0-6-2-7-5.2c-1.2-3.9,0.9-8,4.8-9.3
		c26.1-8.2,43.6-32.1,43.6-59.4c0-34.3-27.9-62.3-62.3-62.3c-34.3,0-62.3,27.9-62.3,62.3c0,27.3,17.5,51.2,43.6,59.4
		c3.9,1.2,6.1,5.4,4.8,9.3c-1.2,3.9-5.4,6.1-9.3,4.8C23.7,141.4,2,111.9,2,78C2,35.6,36.6,1,79,1C121.5,1,156.1,35.6,156.1,78
		 M116.1,104.6c2.9-2.9,3.1-7.6,0.3-10.4c-2.9-2.9-8-2.9-10.8,0l-20.1,19.7V78.3c0-4.1-3.3-7.4-7.4-7.4c-4.1,0-7.4,3.3-7.4,7.4v35.5
		L51.4,94.1c-2.9-2.9-7.3-2.9-10.2,0c-2.9,2.9-3.3,7.6-0.4,10.4l29.8,30.2v55.2c0,4.1,3.3,7.4,7.4,7.4c4.1,0,7.4-3.3,7.4-7.4v-55.2
		L116.1,104.6z"/>
	<g>
		<path fill="#1A9AD3" d="M229.5,65.8c0.9,2.9,1.8,6.2,2.8,9.9c1,3.7,2.1,7.5,3.3,11.4c1.2,3.9,2.4,7.9,3.6,11.8
			c1.2,3.9,2.4,7.6,3.5,10.9c0.9-3.6,1.9-7.6,2.9-11.9c1-4.3,1.9-8.7,2.7-13.3c0.9-4.6,1.7-9.1,2.5-13.7c0.8-4.5,1.6-8.9,2.3-13.1
			h17.4c-2.5,12.5-5.4,25.1-8.7,37.9c-3.3,12.8-6.8,25-10.6,36.5H236c-2.5-6.9-4.9-14.1-7.3-21.6c-2.4-7.5-4.7-15.1-7-22.7
			c-2.3,7.6-4.6,15.2-6.9,22.7c-2.3,7.6-4.7,14.8-7.2,21.6h-15.3c-3.8-11.5-7.3-23.7-10.6-36.5c-3.3-12.8-6.2-25.4-8.7-37.9h18.1
			c0.7,4.2,1.5,8.6,2.4,13.1c0.9,4.5,1.8,9.1,2.7,13.7c0.9,4.6,1.9,9,2.9,13.3c1,4.3,2,8.3,3,11.9c1.3-3.5,2.5-7.2,3.8-11.2
			c1.2-3.9,2.4-7.9,3.5-11.8c1.1-3.9,2.2-7.7,3.2-11.4c1-3.6,1.8-6.9,2.6-9.8H229.5z"/>
		<path fill="#1A9AD3" d="M269.7,104.5c0-5,0.8-9.4,2.3-13.1c1.5-3.8,3.6-6.9,6.1-9.4c2.5-2.5,5.4-4.4,8.6-5.7
			c3.3-1.3,6.6-1.9,10-1.9c8,0,14.3,2.5,19,7.4c4.7,4.9,7,12.1,7,21.6c0,0.9,0,2-0.1,3.1c-0.1,1.1-0.1,2.1-0.2,3h-36.3
			c0.4,3.3,1.9,5.9,4.6,7.8c2.7,1.9,6.4,2.9,10.9,2.9c2.9,0,5.8-0.3,8.6-0.8c2.8-0.5,5.1-1.2,6.9-2l2.1,13c-0.9,0.4-2,0.9-3.4,1.3
			c-1.4,0.4-3,0.8-4.8,1.1c-1.8,0.3-3.6,0.6-5.6,0.8c-2,0.2-4,0.3-6,0.3c-5.1,0-9.5-0.8-13.3-2.3c-3.8-1.5-6.9-3.6-9.3-6.2
			c-2.5-2.6-4.3-5.7-5.5-9.3C270.3,112.5,269.7,108.6,269.7,104.5z M307.3,98.3c-0.1-1.4-0.3-2.7-0.7-4c-0.4-1.3-1-2.4-1.8-3.4
			c-0.8-1-1.9-1.8-3.1-2.5c-1.3-0.6-2.8-1-4.7-1c-1.8,0-3.3,0.3-4.6,0.9c-1.3,0.6-2.4,1.4-3.2,2.4c-0.9,1-1.5,2.2-2,3.5
			c-0.5,1.3-0.8,2.7-1,4H307.3z"/>
		<path fill="#1A9AD3" d="M351.1,74.3c4.7,0,8.7,0.5,11.8,1.6c3.1,1.1,5.7,2.6,7.6,4.6c1.9,2,3.2,4.4,4,7.3c0.8,2.9,1.2,6,1.2,9.6
			v33.3c-2.3,0.5-5.5,1.1-9.6,1.8c-4.1,0.7-9,1-14.8,1c-3.6,0-7-0.3-9.9-1c-3-0.6-5.5-1.7-7.7-3.2c-2.1-1.5-3.8-3.4-4.9-5.7
			c-1.1-2.4-1.7-5.3-1.7-8.7c0-3.3,0.7-6.1,2-8.4c1.3-2.3,3.1-4.1,5.3-5.5c2.2-1.4,4.8-2.3,7.6-3c2.9-0.6,5.8-0.9,8.9-0.9
			c2.1,0,3.9,0.1,5.5,0.3c1.6,0.2,2.9,0.4,3.9,0.7v-1.5c0-2.7-0.8-4.9-2.5-6.5c-1.6-1.6-4.5-2.5-8.6-2.5c-2.7,0-5.4,0.2-8.1,0.6
			c-2.6,0.4-4.9,0.9-6.9,1.7l-2-12.9c0.9-0.3,2.1-0.6,3.5-0.9c1.4-0.3,2.9-0.6,4.6-0.9c1.6-0.2,3.4-0.5,5.2-0.6
			C347.4,74.4,349.2,74.3,351.1,74.3z M352.4,121.1c1.6,0,3.1,0,4.5-0.1c1.4-0.1,2.6-0.2,3.4-0.3v-12.1c-0.6-0.1-1.6-0.3-2.9-0.4
			c-1.3-0.1-2.5-0.2-3.5-0.2c-1.5,0-2.9,0.1-4.2,0.3c-1.3,0.2-2.5,0.5-3.5,1c-1,0.5-1.8,1.2-2.4,2c-0.6,0.9-0.9,1.9-0.9,3.2
			c0,2.5,0.8,4.2,2.5,5.2C347.1,120.6,349.4,121.1,352.4,121.1z"/>
		<path fill="#1A9AD3" d="M419.9,90c-1.4-0.4-3.1-0.7-5-1.1c-1.9-0.4-4-0.6-6.2-0.6c-1,0-2.2,0.1-3.6,0.3c-1.4,0.2-2.5,0.4-3.2,0.6
			v43.2h-16V78.8c2.9-1,6.2-1.9,10.1-2.8c3.9-0.9,8.2-1.3,13-1.3c0.9,0,1.9,0.1,3.1,0.2c1.2,0.1,2.4,0.3,3.6,0.4
			c1.2,0.2,2.4,0.4,3.6,0.6c1.2,0.3,2.3,0.6,3.1,0.9L419.9,90z"/>
		<path fill="#1A9AD3" d="M455.2,88.4c3-5.1,5.9-10.1,8.6-15.2c2.7-5.1,5.2-10.2,7.5-15.3h18.5c-4.1,8-8.3,15.8-12.7,23.3
			c-4.4,7.5-9,15.1-13.8,22.6v28.4h-16.7V104c-4.9-7.6-9.5-15.2-13.9-22.8c-4.4-7.6-8.6-15.4-12.7-23.4h19.4
			c2.3,5.1,4.8,10.2,7.4,15.3C449.4,78.2,452.2,83.3,455.2,88.4z"/>
		<path fill="#1A9AD3" d="M537,103.9c0,4.4-0.6,8.5-1.9,12.2c-1.3,3.7-3.1,6.8-5.6,9.4c-2.4,2.6-5.4,4.6-8.7,6.1
			c-3.4,1.4-7.2,2.1-11.4,2.1c-4.2,0-7.9-0.7-11.3-2.1c-3.4-1.4-6.3-3.5-8.7-6.1c-2.4-2.6-4.3-5.8-5.7-9.4c-1.4-3.7-2-7.7-2-12.2
			c0-4.4,0.7-8.5,2.1-12.1c1.4-3.6,3.3-6.8,5.8-9.3c2.5-2.6,5.4-4.6,8.8-6c3.4-1.4,7.1-2.1,11.1-2.1c4.1,0,7.8,0.7,11.2,2.1
			c3.4,1.4,6.3,3.4,8.7,6c2.4,2.6,4.3,5.7,5.7,9.3C536.3,95.4,537,99.5,537,103.9z M520.7,103.9c0-4.9-1-8.8-3-11.6
			c-2-2.8-4.8-4.2-8.4-4.2c-3.6,0-6.5,1.4-8.5,4.2c-2,2.8-3,6.7-3,11.6c0,4.9,1,8.9,3,11.8c2,2.9,4.8,4.3,8.5,4.3
			c3.7,0,6.5-1.4,8.4-4.3C519.7,112.8,520.7,108.9,520.7,103.9z"/>
		<path fill="#1A9AD3" d="M593.3,130.3c-2.7,0.8-6.2,1.5-10.5,2.2c-4.3,0.7-8.8,1-13.5,1c-4.8,0-8.8-0.6-12-1.9
			c-3.2-1.3-5.7-3.1-7.6-5.4c-1.9-2.3-3.2-5.1-4-8.3c-0.8-3.2-1.2-6.8-1.2-10.6V75.8h16v29.5c0,5.2,0.7,8.9,2,11.2
			c1.4,2.3,3.9,3.4,7.6,3.4c1.1,0,2.4-0.1,3.6-0.2c1.3-0.1,2.4-0.2,3.4-0.4V75.8h16V130.3z"/>
		<path fill="#1A9AD3" d="M638.1,90c-1.4-0.4-3.1-0.7-5-1.1c-1.9-0.4-4-0.6-6.2-0.6c-1,0-2.2,0.1-3.6,0.3c-1.4,0.2-2.5,0.4-3.2,0.6
			v43.2h-16V78.8c2.9-1,6.2-1.9,10.1-2.8c3.9-0.9,8.2-1.3,13-1.3c0.9,0,1.9,0.1,3.1,0.2c1.2,0.1,2.4,0.3,3.6,0.4
			c1.2,0.2,2.4,0.4,3.6,0.6c1.2,0.3,2.3,0.6,3.1,0.9L638.1,90z"/>
		<path fill="#1A9AD3" d="M696.3,65.8c0.9,2.9,1.8,6.2,2.8,9.9c1,3.7,2.1,7.5,3.3,11.4c1.2,3.9,2.4,7.9,3.6,11.8
			c1.2,3.9,2.4,7.6,3.5,10.9c0.9-3.6,1.9-7.6,2.9-11.9c1-4.3,1.9-8.7,2.8-13.3c0.9-4.6,1.7-9.1,2.5-13.7c0.8-4.5,1.6-8.9,2.3-13.1
			h17.4c-2.5,12.5-5.4,25.1-8.7,37.9c-3.3,12.8-6.8,25-10.6,36.5h-15.3c-2.5-6.9-4.9-14.1-7.3-21.6c-2.4-7.5-4.7-15.1-7-22.7
			c-2.3,7.6-4.6,15.2-6.9,22.7c-2.3,7.6-4.7,14.8-7.2,21.6h-15.3c-3.8-11.5-7.4-23.7-10.6-36.5c-3.3-12.8-6.2-25.4-8.7-37.9H658
			c0.7,4.2,1.5,8.6,2.4,13.1c0.9,4.5,1.8,9.1,2.7,13.7c0.9,4.6,1.9,9,2.9,13.3c1,4.3,2,8.3,3,11.9c1.3-3.5,2.5-7.2,3.8-11.2
			c1.2-3.9,2.4-7.9,3.5-11.8c1.1-3.9,2.2-7.7,3.2-11.4c1-3.6,1.8-6.9,2.6-9.8H696.3z"/>
		<path fill="#1A9AD3" d="M760,74.3c4.7,0,8.7,0.5,11.8,1.6c3.1,1.1,5.7,2.6,7.6,4.6c1.9,2,3.2,4.4,4,7.3c0.8,2.9,1.2,6,1.2,9.6
			v33.3c-2.3,0.5-5.5,1.1-9.6,1.8c-4.1,0.7-9,1-14.8,1c-3.6,0-7-0.3-9.9-1c-3-0.6-5.5-1.7-7.7-3.2c-2.1-1.5-3.8-3.4-4.9-5.7
			c-1.1-2.4-1.7-5.3-1.7-8.7c0-3.3,0.7-6.1,2-8.4c1.3-2.3,3.1-4.1,5.3-5.5c2.2-1.4,4.8-2.3,7.6-3c2.9-0.6,5.8-0.9,8.9-0.9
			c2.1,0,3.9,0.1,5.5,0.3c1.6,0.2,2.9,0.4,3.9,0.7v-1.5c0-2.7-0.8-4.9-2.5-6.5c-1.6-1.6-4.5-2.5-8.6-2.5c-2.7,0-5.4,0.2-8.1,0.6
			c-2.6,0.4-4.9,0.9-6.9,1.7l-2-12.9c0.9-0.3,2.1-0.6,3.5-0.9c1.4-0.3,2.9-0.6,4.6-0.9c1.6-0.2,3.4-0.5,5.2-0.6
			C756.3,74.4,758.1,74.3,760,74.3z M761.3,121.1c1.6,0,3.1,0,4.5-0.1c1.4-0.1,2.6-0.2,3.4-0.3v-12.1c-0.6-0.1-1.6-0.3-2.9-0.4
			c-1.3-0.1-2.5-0.2-3.5-0.2c-1.5,0-2.9,0.1-4.2,0.3c-1.3,0.2-2.5,0.5-3.5,1c-1,0.5-1.8,1.2-2.4,2c-0.6,0.9-0.9,1.9-0.9,3.2
			c0,2.5,0.8,4.2,2.5,5.2C756,120.6,758.3,121.1,761.3,121.1z"/>
		<path fill="#1A9AD3" d="M811,120.8c2.9,0,5-0.3,6.2-0.9c1.2-0.6,1.8-1.7,1.8-3.3c0-1.3-0.8-2.4-2.4-3.4c-1.6-1-4-2.1-7.2-3.3
			c-2.5-0.9-4.8-1.9-6.8-2.9c-2-1-3.8-2.2-5.2-3.6c-1.4-1.4-2.5-3.1-3.3-5c-0.8-1.9-1.2-4.3-1.2-7c0-5.3,2-9.5,5.9-12.6
			c3.9-3.1,9.3-4.6,16.2-4.6c3.4,0,6.7,0.3,9.9,0.9c3.1,0.6,5.7,1.3,7.5,2l-2.8,12.5c-1.9-0.6-3.9-1.2-6.1-1.7
			c-2.2-0.5-4.6-0.8-7.4-0.8c-5,0-7.5,1.4-7.5,4.2c0,0.6,0.1,1.2,0.3,1.7c0.2,0.5,0.6,1,1.3,1.4c0.6,0.5,1.5,1,2.6,1.5
			c1.1,0.5,2.5,1.1,4.2,1.8c3.5,1.3,6.4,2.6,8.7,3.8c2.3,1.3,4.1,2.6,5.4,4.1c1.3,1.5,2.3,3.1,2.8,4.9c0.5,1.8,0.8,3.9,0.8,6.2
			c0,5.6-2.1,9.8-6.3,12.6c-4.2,2.9-10.1,4.3-17.8,4.3c-5,0-9.2-0.4-12.5-1.3c-3.3-0.9-5.6-1.6-6.9-2.1l2.7-13
			c2.7,1.1,5.5,1.9,8.4,2.5C805.3,120.5,808.2,120.8,811,120.8z"/>
		<path fill="#1A9AD3" d="M842.1,61.7l16-2.6v16.6h19.2v13.3h-19.2V109c0,3.4,0.6,6,1.8,8.1c1.2,2,3.6,3,7.1,3
			c1.7,0,3.5-0.2,5.3-0.5c1.8-0.3,3.5-0.8,5-1.3l2.3,12.5c-1.9,0.8-4.1,1.5-6.4,2c-2.4,0.6-5.3,0.9-8.7,0.9c-4.4,0-8-0.6-10.8-1.8
			c-2.9-1.2-5.2-2.8-6.9-4.9c-1.7-2.1-2.9-4.7-3.6-7.7c-0.7-3-1-6.3-1-10V61.7z"/>
		<path fill="#1A9AD3" d="M881.3,104.5c0-5,0.8-9.4,2.3-13.1c1.5-3.8,3.6-6.9,6.1-9.4c2.5-2.5,5.4-4.4,8.6-5.7
			c3.3-1.3,6.6-1.9,10-1.9c8,0,14.3,2.5,19,7.4c4.7,4.9,7,12.1,7,21.6c0,0.9,0,2-0.1,3.1c-0.1,1.1-0.1,2.1-0.2,3h-36.3
			c0.4,3.3,1.9,5.9,4.6,7.8c2.7,1.9,6.4,2.9,10.9,2.9c2.9,0,5.8-0.3,8.6-0.8c2.8-0.5,5.1-1.2,6.9-2l2.1,13c-0.9,0.4-2,0.9-3.4,1.3
			c-1.4,0.4-3,0.8-4.8,1.1c-1.8,0.3-3.6,0.6-5.6,0.8c-2,0.2-4,0.3-6,0.3c-5.1,0-9.5-0.8-13.3-2.3c-3.8-1.5-6.9-3.6-9.3-6.2
			c-2.5-2.6-4.3-5.7-5.5-9.3C881.8,112.5,881.3,108.6,881.3,104.5z M918.8,98.3c-0.1-1.4-0.3-2.7-0.7-4c-0.4-1.3-1-2.4-1.8-3.4
			c-0.8-1-1.9-1.8-3.1-2.5c-1.3-0.6-2.8-1-4.7-1c-1.8,0-3.3,0.3-4.6,0.9c-1.3,0.6-2.4,1.4-3.2,2.4c-0.9,1-1.5,2.2-2,3.5
			c-0.5,1.3-0.8,2.7-1,4H918.8z"/>
	</g>
	<g>
		<path fill="#1A9AD3" d="M949,57.9c0,2.5-0.4,4.8-1.3,6.8c-0.8,2-2,3.7-3.4,5.1c-1.4,1.4-3,2.5-4.9,3.2c-1.9,0.7-3.8,1.1-5.8,1.1
			c-2,0-4-0.4-5.8-1.1c-1.9-0.7-3.5-1.8-4.9-3.2c-1.4-1.4-2.5-3.1-3.4-5.1c-0.8-2-1.3-4.3-1.3-6.8c0-2.5,0.4-4.8,1.3-6.8
			c0.8-2,2-3.7,3.4-5.1c1.4-1.4,3-2.5,4.9-3.2c1.9-0.7,3.8-1.1,5.8-1.1c2,0,4,0.4,5.8,1.1c1.9,0.7,3.5,1.8,4.9,3.2
			c1.4,1.4,2.5,3.1,3.4,5.1C948.6,53,949,55.3,949,57.9z M945.7,57.9c0-2-0.3-3.8-0.9-5.4c-0.6-1.6-1.4-3-2.5-4.2
			c-1.1-1.2-2.3-2.1-3.8-2.7c-1.5-0.6-3.1-0.9-4.9-0.9c-1.8,0-3.4,0.3-4.9,0.9c-1.5,0.6-2.8,1.5-3.8,2.7c-1.1,1.2-1.9,2.6-2.5,4.2
			c-0.6,1.6-0.9,3.4-0.9,5.4c0,2,0.3,3.8,0.9,5.4c0.6,1.6,1.4,3,2.5,4.2c1.1,1.2,2.3,2.1,3.8,2.7c1.5,0.6,3.1,0.9,4.9,0.9
			c1.8,0,3.4-0.3,4.9-0.9c1.5-0.6,2.8-1.5,3.8-2.7c1.1-1.2,1.9-2.6,2.5-4.2C945.4,61.6,945.7,59.8,945.7,57.9z M938.1,66.8
			c-0.7-1.3-1.5-2.6-2.3-3.8c-0.9-1.2-1.6-2.2-2.2-2.9h-3v6.7h-3.2V49.4c0.8-0.2,1.7-0.3,2.6-0.4c0.9-0.1,1.7-0.1,2.5-0.1
			c2.6,0,4.5,0.5,5.9,1.4c1.3,1,2,2.4,2,4.4c0,1.1-0.3,2.1-0.9,2.9c-0.6,0.8-1.4,1.5-2.5,1.9c0.3,0.4,0.6,0.8,1,1.3
			c0.4,0.5,0.8,1.1,1.2,1.8c0.4,0.7,0.8,1.3,1.3,2.1c0.4,0.7,0.8,1.4,1.1,2.2H938.1z M930.6,57.5h1.7c1.3,0,2.5-0.2,3.4-0.6
			c0.9-0.4,1.3-1.1,1.3-2.3c0-1.1-0.4-1.9-1.3-2.3c-0.9-0.4-1.9-0.7-3.1-0.7c-0.3,0-0.7,0-1,0c-0.4,0-0.7,0-1,0.1V57.5z"/>
	</g>
	<g>
		<path fill="#1A9AD3" d="M213.7,185.4v4.4h-21.9v-36.3h5.1v31.9H213.7z"/>
		<path fill="#1A9AD3" d="M240.4,176.2c0,2.2-0.3,4.1-0.9,5.9c-0.6,1.7-1.5,3.3-2.6,4.5c-1.1,1.3-2.5,2.2-4.1,2.9
			c-1.6,0.7-3.3,1-5.1,1c-1.9,0-3.6-0.3-5.1-1c-1.6-0.7-2.9-1.7-4.1-2.9c-1.1-1.3-2-2.8-2.6-4.5c-0.6-1.7-0.9-3.7-0.9-5.9
			c0-2.1,0.3-4.1,0.9-5.8c0.6-1.8,1.5-3.3,2.6-4.5c1.1-1.3,2.5-2.2,4.1-2.9c1.6-0.7,3.3-1,5.1-1c1.9,0,3.6,0.3,5.1,1
			c1.6,0.7,2.9,1.7,4.1,2.9c1.1,1.3,2,2.8,2.6,4.5C240.1,172.1,240.4,174.1,240.4,176.2z M235.4,176.2c0-3.1-0.7-5.5-2.1-7.3
			c-1.4-1.8-3.3-2.7-5.6-2.7c-2.4,0-4.3,0.9-5.6,2.7c-1.4,1.8-2.1,4.2-2.1,7.3c0,3.1,0.7,5.5,2.1,7.3c1.4,1.8,3.3,2.7,5.6,2.7
			c2.4,0,4.3-0.9,5.6-2.7C234.7,181.7,235.4,179.3,235.4,176.2z"/>
		<path fill="#1A9AD3" d="M269.7,176.2c0,2.2-0.3,4.1-0.9,5.9c-0.6,1.7-1.5,3.3-2.6,4.5c-1.1,1.3-2.5,2.2-4.1,2.9
			c-1.6,0.7-3.3,1-5.1,1c-1.9,0-3.6-0.3-5.1-1c-1.6-0.7-2.9-1.7-4.1-2.9c-1.1-1.3-2-2.8-2.6-4.5c-0.6-1.7-0.9-3.7-0.9-5.9
			c0-2.1,0.3-4.1,0.9-5.8c0.6-1.8,1.5-3.3,2.6-4.5c1.1-1.3,2.5-2.2,4.1-2.9c1.6-0.7,3.3-1,5.1-1c1.9,0,3.6,0.3,5.1,1
			c1.6,0.7,2.9,1.7,4.1,2.9c1.1,1.3,2,2.8,2.6,4.5C269.4,172.1,269.7,174.1,269.7,176.2z M264.6,176.2c0-3.1-0.7-5.5-2.1-7.3
			c-1.4-1.8-3.3-2.7-5.6-2.7c-2.4,0-4.3,0.9-5.6,2.7c-1.4,1.8-2.1,4.2-2.1,7.3c0,3.1,0.7,5.5,2.1,7.3c1.4,1.8,3.3,2.7,5.6,2.7
			c2.4,0,4.3-0.9,5.6-2.7C263.9,181.7,264.6,179.3,264.6,176.2z"/>
		<path fill="#1A9AD3" d="M284.8,174.8c1,0.8,2.2,1.8,3.3,3c1.2,1.2,2.3,2.5,3.5,3.9c1.1,1.4,2.2,2.8,3.2,4.2c1,1.4,1.9,2.7,2.6,4
			h-5.7c-0.7-1.2-1.6-2.5-2.5-3.7c-1-1.3-2-2.5-3-3.7c-1-1.2-2.1-2.2-3.2-3.2c-1.1-1-2.1-1.8-3.1-2.5v13.1h-4.9V150l4.9-0.8V174
			c0.8-0.8,1.8-1.8,2.8-2.8c1-1,2-2,3-3.1c1-1,1.9-2.1,2.8-3c0.9-1,1.6-1.8,2.3-2.5h5.7c-0.8,0.9-1.7,1.8-2.6,2.9
			c-0.9,1-1.9,2.1-2.9,3.2c-1,1.1-2,2.1-3.1,3.2C286.6,172.9,285.7,173.9,284.8,174.8z"/>
		<path fill="#1A9AD3" d="M333.5,172h5.1v17c-0.4,0.1-1,0.3-1.8,0.5c-0.8,0.2-1.7,0.3-2.7,0.5c-1,0.2-2.2,0.3-3.4,0.4
			c-1.2,0.1-2.5,0.2-3.7,0.2c-2.6,0-4.9-0.4-7-1.3c-2.1-0.8-3.9-2.1-5.4-3.7c-1.5-1.6-2.7-3.6-3.5-5.9c-0.8-2.3-1.2-5-1.2-8.1
			c0-3,0.5-5.7,1.4-8.1c0.9-2.4,2.2-4.3,3.7-6c1.6-1.6,3.4-2.8,5.5-3.7c2.1-0.8,4.4-1.3,6.8-1.3c1.6,0,3.1,0.1,4.4,0.3
			c1.3,0.2,2.4,0.5,3.3,0.7c0.9,0.3,1.7,0.6,2.2,0.8c0.6,0.3,1,0.5,1.2,0.6l-1.6,4.2c-1-0.7-2.4-1.2-4-1.7c-1.7-0.4-3.4-0.7-5.1-0.7
			c-1.9,0-3.5,0.3-5.1,1c-1.5,0.7-2.8,1.6-3.9,2.9c-1.1,1.3-1.9,2.8-2.5,4.6c-0.6,1.8-0.9,3.8-0.9,6.1c0,2.2,0.3,4.1,0.8,5.9
			c0.5,1.8,1.3,3.3,2.3,4.6c1,1.3,2.3,2.3,3.8,3c1.5,0.7,3.3,1,5.4,1c1.5,0,2.7-0.1,3.7-0.2c1-0.2,1.8-0.3,2.2-0.4V172z"/>
		<path fill="#1A9AD3" d="M368.7,176.2c0,2.2-0.3,4.1-0.9,5.9c-0.6,1.7-1.5,3.3-2.6,4.5c-1.1,1.3-2.5,2.2-4.1,2.9
			c-1.6,0.7-3.3,1-5.1,1c-1.9,0-3.6-0.3-5.1-1c-1.6-0.7-2.9-1.7-4.1-2.9c-1.1-1.3-2-2.8-2.6-4.5c-0.6-1.7-0.9-3.7-0.9-5.9
			c0-2.1,0.3-4.1,0.9-5.8c0.6-1.8,1.5-3.3,2.6-4.5c1.1-1.3,2.5-2.2,4.1-2.9c1.6-0.7,3.3-1,5.1-1c1.9,0,3.6,0.3,5.1,1
			c1.6,0.7,2.9,1.7,4.1,2.9c1.1,1.3,2,2.8,2.6,4.5C368.4,172.1,368.7,174.1,368.7,176.2z M363.6,176.2c0-3.1-0.7-5.5-2.1-7.3
			c-1.4-1.8-3.3-2.7-5.6-2.7c-2.4,0-4.3,0.9-5.6,2.7c-1.4,1.8-2.1,4.2-2.1,7.3c0,3.1,0.7,5.5,2.1,7.3c1.4,1.8,3.3,2.7,5.6,2.7
			c2.4,0,4.3-0.9,5.6-2.7C362.9,181.7,363.6,179.3,363.6,176.2z"/>
		<path fill="#1A9AD3" d="M397.9,176.2c0,2.2-0.3,4.1-0.9,5.9c-0.6,1.7-1.5,3.3-2.6,4.5c-1.1,1.3-2.5,2.2-4.1,2.9
			c-1.6,0.7-3.3,1-5.1,1c-1.9,0-3.6-0.3-5.1-1c-1.6-0.7-2.9-1.7-4.1-2.9c-1.1-1.3-2-2.8-2.6-4.5c-0.6-1.7-0.9-3.7-0.9-5.9
			c0-2.1,0.3-4.1,0.9-5.8c0.6-1.8,1.5-3.3,2.6-4.5c1.1-1.3,2.5-2.2,4.1-2.9c1.6-0.7,3.3-1,5.1-1c1.9,0,3.6,0.3,5.1,1
			c1.6,0.7,2.9,1.7,4.1,2.9c1.1,1.3,2,2.8,2.6,4.5C397.6,172.1,397.9,174.1,397.9,176.2z M392.8,176.2c0-3.1-0.7-5.5-2.1-7.3
			c-1.4-1.8-3.3-2.7-5.6-2.7c-2.4,0-4.3,0.9-5.6,2.7c-1.4,1.8-2.1,4.2-2.1,7.3c0,3.1,0.7,5.5,2.1,7.3c1.4,1.8,3.3,2.7,5.6,2.7
			c2.4,0,4.3-0.9,5.6-2.7C392.1,181.7,392.8,179.3,392.8,176.2z"/>
		<path fill="#1A9AD3" d="M420.7,150l4.9-0.8V189c-1.1,0.3-2.6,0.6-4.3,0.9c-1.7,0.3-3.8,0.5-6,0.5c-2.1,0-4-0.3-5.7-1
			c-1.7-0.7-3.1-1.6-4.3-2.8c-1.2-1.2-2.1-2.7-2.8-4.5c-0.6-1.8-1-3.7-1-6c0-2.1,0.3-4,0.8-5.8c0.5-1.7,1.3-3.3,2.4-4.5
			c1-1.3,2.3-2.2,3.9-2.9c1.5-0.7,3.3-1,5.2-1c1.6,0,3,0.2,4.2,0.6c1.2,0.4,2.1,0.8,2.7,1.2V150z M420.7,168.3
			c-0.6-0.5-1.5-1-2.6-1.4c-1.1-0.5-2.3-0.7-3.7-0.7c-1.4,0-2.6,0.3-3.6,0.8c-1,0.5-1.8,1.2-2.4,2.1c-0.6,0.9-1.1,1.9-1.4,3.2
			c-0.3,1.2-0.4,2.5-0.4,3.9c0,3.2,0.8,5.6,2.4,7.4s3.7,2.6,6.3,2.6c1.3,0,2.4-0.1,3.3-0.2c0.9-0.1,1.6-0.3,2.1-0.4V168.3z"/>
		<path fill="#1A9AD3" d="M504.2,171.6c0,3.1-0.5,5.9-1.5,8.2c-1,2.3-2.4,4.2-4.1,5.8c-1.8,1.5-3.9,2.7-6.4,3.4
			c-2.5,0.8-5.2,1.1-8.2,1.1c-1.5,0-3.1-0.1-4.9-0.2c-1.8-0.1-3.4-0.4-4.8-0.7V154c1.4-0.3,3-0.6,4.8-0.7c1.8-0.1,3.4-0.2,4.9-0.2
			c3,0,5.7,0.4,8.2,1.1c2.5,0.8,4.6,1.9,6.4,3.4c1.8,1.5,3.2,3.4,4.1,5.8C503.7,165.8,504.2,168.5,504.2,171.6z M484.4,185.7
			c4.8,0,8.4-1.2,10.8-3.7c2.4-2.5,3.6-5.9,3.6-10.4c0-4.4-1.2-7.9-3.6-10.4c-2.4-2.5-6-3.7-10.8-3.7c-1.4,0-2.5,0-3.3,0.1
			c-0.8,0-1.3,0.1-1.7,0.1v27.8c0.3,0,0.9,0.1,1.7,0.1C481.9,185.7,483,185.7,484.4,185.7z"/>
		<path fill="#1A9AD3" d="M533.8,176.2c0,2.2-0.3,4.1-0.9,5.9c-0.6,1.7-1.5,3.3-2.6,4.5c-1.1,1.3-2.5,2.2-4.1,2.9
			c-1.6,0.7-3.3,1-5.1,1c-1.9,0-3.6-0.3-5.1-1c-1.6-0.7-2.9-1.7-4.1-2.9c-1.1-1.3-2-2.8-2.6-4.5c-0.6-1.7-0.9-3.7-0.9-5.9
			c0-2.1,0.3-4.1,0.9-5.8c0.6-1.8,1.5-3.3,2.6-4.5c1.1-1.3,2.5-2.2,4.1-2.9c1.6-0.7,3.3-1,5.1-1c1.9,0,3.6,0.3,5.1,1
			c1.6,0.7,2.9,1.7,4.1,2.9c1.1,1.3,2,2.8,2.6,4.5C533.5,172.1,533.8,174.1,533.8,176.2z M528.7,176.2c0-3.1-0.7-5.5-2.1-7.3
			c-1.4-1.8-3.3-2.7-5.6-2.7c-2.4,0-4.3,0.9-5.6,2.7c-1.4,1.8-2.1,4.2-2.1,7.3c0,3.1,0.7,5.5,2.1,7.3c1.4,1.8,3.3,2.7,5.6,2.7
			c2.4,0,4.3-0.9,5.6-2.7C528,181.7,528.7,179.3,528.7,176.2z"/>
		<path fill="#1A9AD3" d="M571.9,172h5.1v17c-0.4,0.1-1,0.3-1.8,0.5c-0.8,0.2-1.7,0.3-2.7,0.5c-1,0.2-2.2,0.3-3.4,0.4
			c-1.2,0.1-2.5,0.2-3.7,0.2c-2.6,0-4.9-0.4-7-1.3c-2.1-0.8-3.9-2.1-5.4-3.7c-1.5-1.6-2.7-3.6-3.5-5.9c-0.8-2.3-1.2-5-1.2-8.1
			c0-3,0.5-5.7,1.4-8.1c0.9-2.4,2.2-4.3,3.7-6c1.6-1.6,3.4-2.8,5.5-3.7c2.1-0.8,4.4-1.3,6.8-1.3c1.6,0,3.1,0.1,4.4,0.3
			c1.3,0.2,2.4,0.5,3.3,0.7c0.9,0.3,1.7,0.6,2.2,0.8c0.6,0.3,1,0.5,1.2,0.6l-1.6,4.2c-1-0.7-2.4-1.2-4-1.7c-1.7-0.4-3.4-0.7-5.1-0.7
			c-1.9,0-3.5,0.3-5.1,1c-1.5,0.7-2.8,1.6-3.9,2.9c-1.1,1.3-1.9,2.8-2.5,4.6c-0.6,1.8-0.9,3.8-0.9,6.1c0,2.2,0.3,4.1,0.8,5.9
			c0.5,1.8,1.3,3.3,2.3,4.6c1,1.3,2.3,2.3,3.8,3c1.5,0.7,3.3,1,5.4,1c1.5,0,2.7-0.1,3.7-0.2c1-0.2,1.8-0.3,2.2-0.4V172z"/>
		<path fill="#1A9AD3" d="M607,176.2c0,2.2-0.3,4.1-0.9,5.9c-0.6,1.7-1.5,3.3-2.6,4.5c-1.1,1.3-2.5,2.2-4.1,2.9
			c-1.6,0.7-3.3,1-5.1,1c-1.9,0-3.6-0.3-5.1-1c-1.6-0.7-2.9-1.7-4.1-2.9c-1.1-1.3-2-2.8-2.6-4.5c-0.6-1.7-0.9-3.7-0.9-5.9
			c0-2.1,0.3-4.1,0.9-5.8c0.6-1.8,1.5-3.3,2.6-4.5c1.1-1.3,2.5-2.2,4.1-2.9c1.6-0.7,3.3-1,5.1-1c1.9,0,3.6,0.3,5.1,1
			c1.6,0.7,2.9,1.7,4.1,2.9c1.1,1.3,2,2.8,2.6,4.5C606.7,172.1,607,174.1,607,176.2z M601.9,176.2c0-3.1-0.7-5.5-2.1-7.3
			c-1.4-1.8-3.3-2.7-5.6-2.7c-2.4,0-4.3,0.9-5.6,2.7c-1.4,1.8-2.1,4.2-2.1,7.3c0,3.1,0.7,5.5,2.1,7.3c1.4,1.8,3.3,2.7,5.6,2.7
			c2.4,0,4.3-0.9,5.6-2.7C601.2,181.7,601.9,179.3,601.9,176.2z"/>
		<path fill="#1A9AD3" d="M636.2,176.2c0,2.2-0.3,4.1-0.9,5.9c-0.6,1.7-1.5,3.3-2.6,4.5c-1.1,1.3-2.5,2.2-4.1,2.9
			c-1.6,0.7-3.3,1-5.1,1c-1.9,0-3.6-0.3-5.1-1c-1.6-0.7-2.9-1.7-4.1-2.9c-1.1-1.3-2-2.8-2.6-4.5c-0.6-1.7-0.9-3.7-0.9-5.9
			c0-2.1,0.3-4.1,0.9-5.8c0.6-1.8,1.5-3.3,2.6-4.5c1.1-1.3,2.5-2.2,4.1-2.9c1.6-0.7,3.3-1,5.1-1c1.9,0,3.6,0.3,5.1,1
			c1.6,0.7,2.9,1.7,4.1,2.9c1.1,1.3,2,2.8,2.6,4.5C635.9,172.1,636.2,174.1,636.2,176.2z M631.2,176.2c0-3.1-0.7-5.5-2.1-7.3
			c-1.4-1.8-3.3-2.7-5.6-2.7c-2.4,0-4.3,0.9-5.6,2.7c-1.4,1.8-2.1,4.2-2.1,7.3c0,3.1,0.7,5.5,2.1,7.3c1.4,1.8,3.3,2.7,5.6,2.7
			c2.4,0,4.3-0.9,5.6-2.7C630.5,181.7,631.2,179.3,631.2,176.2z"/>
		<path fill="#1A9AD3" d="M659.1,150l4.9-0.8V189c-1.1,0.3-2.6,0.6-4.3,0.9c-1.7,0.3-3.8,0.5-6,0.5c-2.1,0-4-0.3-5.7-1
			c-1.7-0.7-3.1-1.6-4.3-2.8c-1.2-1.2-2.1-2.7-2.8-4.5c-0.6-1.8-1-3.7-1-6c0-2.1,0.3-4,0.8-5.8c0.5-1.7,1.3-3.3,2.4-4.5
			c1-1.3,2.3-2.2,3.9-2.9c1.5-0.7,3.3-1,5.2-1c1.6,0,3,0.2,4.2,0.6c1.2,0.4,2.1,0.8,2.7,1.2V150z M659.1,168.3
			c-0.6-0.5-1.5-1-2.6-1.4c-1.1-0.5-2.3-0.7-3.7-0.7c-1.4,0-2.6,0.3-3.6,0.8c-1,0.5-1.8,1.2-2.4,2.1s-1.1,1.9-1.4,3.2
			c-0.3,1.2-0.4,2.5-0.4,3.9c0,3.2,0.8,5.6,2.4,7.4c1.6,1.7,3.7,2.6,6.3,2.6c1.3,0,2.4-0.1,3.3-0.2c0.9-0.1,1.6-0.3,2.1-0.4V168.3z"
			/>
		<path fill="#1A9AD3" d="M712.7,189.8v-36.3h21.9v4.4h-16.8v11h14.9v4.3h-14.9v16.7H712.7z"/>
		<path fill="#1A9AD3" d="M736.6,176.3c0-2.4,0.3-4.5,1-6.3c0.7-1.8,1.6-3.3,2.8-4.5c1.2-1.2,2.5-2.1,4-2.7c1.5-0.6,3-0.9,4.6-0.9
			c3.7,0,6.5,1.1,8.4,3.4c2,2.3,2.9,5.8,2.9,10.5c0,0.2,0,0.5,0,0.8c0,0.3,0,0.6-0.1,0.9h-18.7c0.2,2.8,1,5,2.5,6.5
			c1.4,1.5,3.7,2.2,6.7,2.2c1.7,0,3.2-0.1,4.3-0.4c1.2-0.3,2.1-0.6,2.6-0.9l0.7,4.1c-0.6,0.3-1.6,0.6-3.1,1
			c-1.5,0.3-3.2,0.5-5.1,0.5c-2.4,0-4.4-0.4-6.2-1.1c-1.7-0.7-3.2-1.7-4.3-3c-1.1-1.3-1.9-2.8-2.5-4.5
			C736.9,180.2,736.6,178.3,736.6,176.3z M755.3,173.6c0-2.2-0.5-4-1.7-5.4c-1.1-1.4-2.7-2.1-4.7-2.1c-1.1,0-2.1,0.2-3,0.7
			c-0.9,0.4-1.6,1-2.2,1.7c-0.6,0.7-1.1,1.5-1.4,2.4c-0.3,0.9-0.6,1.8-0.7,2.8H755.3z"/>
		<path fill="#1A9AD3" d="M764.3,176.3c0-2.4,0.3-4.5,1-6.3c0.7-1.8,1.6-3.3,2.8-4.5c1.2-1.2,2.5-2.1,4-2.7c1.5-0.6,3-0.9,4.6-0.9
			c3.7,0,6.5,1.1,8.4,3.4c2,2.3,2.9,5.8,2.9,10.5c0,0.2,0,0.5,0,0.8c0,0.3,0,0.6-0.1,0.9h-18.7c0.2,2.8,1,5,2.5,6.5
			c1.4,1.5,3.7,2.2,6.7,2.2c1.7,0,3.2-0.1,4.3-0.4c1.2-0.3,2.1-0.6,2.6-0.9l0.7,4.1c-0.6,0.3-1.6,0.6-3.1,1
			c-1.5,0.3-3.2,0.5-5.1,0.5c-2.4,0-4.4-0.4-6.2-1.1c-1.7-0.7-3.2-1.7-4.3-3c-1.1-1.3-1.9-2.8-2.5-4.5
			C764.5,180.2,764.3,178.3,764.3,176.3z M783,173.6c0-2.2-0.5-4-1.7-5.4c-1.1-1.4-2.7-2.1-4.7-2.1c-1.1,0-2.1,0.2-3,0.7
			c-0.9,0.4-1.6,1-2.2,1.7c-0.6,0.7-1.1,1.5-1.4,2.4c-0.3,0.9-0.5,1.8-0.7,2.8H783z"/>
		<path fill="#1A9AD3" d="M801.6,190.4c-3-0.1-5.1-0.7-6.4-1.9c-1.3-1.2-1.9-3.1-1.9-5.7V150l4.9-0.8v32.8c0,0.8,0.1,1.5,0.2,2
			c0.1,0.5,0.4,0.9,0.7,1.3c0.3,0.3,0.7,0.6,1.3,0.7c0.5,0.2,1.2,0.3,1.9,0.4L801.6,190.4z"/>
		<path fill="#1A9AD3" d="M838.9,172h5.1v17c-0.4,0.1-1,0.3-1.8,0.5c-0.8,0.2-1.7,0.3-2.7,0.5c-1,0.2-2.2,0.3-3.4,0.4
			c-1.2,0.1-2.5,0.2-3.7,0.2c-2.6,0-4.9-0.4-7-1.3c-2.1-0.8-3.9-2.1-5.4-3.7c-1.5-1.6-2.7-3.6-3.5-5.9c-0.8-2.3-1.2-5-1.2-8.1
			c0-3,0.5-5.7,1.4-8.1c0.9-2.4,2.2-4.3,3.7-6c1.6-1.6,3.4-2.8,5.5-3.7c2.1-0.8,4.4-1.3,6.8-1.3c1.6,0,3.1,0.1,4.4,0.3
			c1.3,0.2,2.4,0.5,3.3,0.7c0.9,0.3,1.7,0.6,2.2,0.8c0.6,0.3,1,0.5,1.2,0.6l-1.6,4.2c-1-0.7-2.4-1.2-4-1.7c-1.7-0.4-3.4-0.7-5.1-0.7
			c-1.9,0-3.5,0.3-5.1,1c-1.5,0.7-2.8,1.6-3.9,2.9c-1.1,1.3-1.9,2.8-2.5,4.6c-0.6,1.8-0.9,3.8-0.9,6.1c0,2.2,0.3,4.1,0.8,5.9
			c0.5,1.8,1.3,3.3,2.3,4.6c1,1.3,2.3,2.3,3.8,3c1.5,0.7,3.3,1,5.4,1c1.5,0,2.7-0.1,3.7-0.2c1-0.2,1.8-0.3,2.2-0.4V172z"/>
		<path fill="#1A9AD3" d="M874,176.2c0,2.2-0.3,4.1-0.9,5.9c-0.6,1.7-1.5,3.3-2.6,4.5c-1.1,1.3-2.5,2.2-4.1,2.9
			c-1.6,0.7-3.3,1-5.1,1c-1.9,0-3.6-0.3-5.1-1c-1.6-0.7-2.9-1.7-4.1-2.9c-1.1-1.3-2-2.8-2.6-4.5c-0.6-1.7-0.9-3.7-0.9-5.9
			c0-2.1,0.3-4.1,0.9-5.8c0.6-1.8,1.5-3.3,2.6-4.5c1.1-1.3,2.5-2.2,4.1-2.9c1.6-0.7,3.3-1,5.1-1c1.9,0,3.6,0.3,5.1,1
			c1.6,0.7,2.9,1.7,4.1,2.9c1.1,1.3,2,2.8,2.6,4.5C873.7,172.1,874,174.1,874,176.2z M868.9,176.2c0-3.1-0.7-5.5-2.1-7.3
			c-1.4-1.8-3.3-2.7-5.6-2.7c-2.4,0-4.3,0.9-5.6,2.7c-1.4,1.8-2.1,4.2-2.1,7.3c0,3.1,0.7,5.5,2.1,7.3c1.4,1.8,3.3,2.7,5.6,2.7
			c2.4,0,4.3-0.9,5.6-2.7C868.3,181.7,868.9,179.3,868.9,176.2z"/>
		<path fill="#1A9AD3" d="M903.3,176.2c0,2.2-0.3,4.1-0.9,5.9c-0.6,1.7-1.5,3.3-2.6,4.5c-1.1,1.3-2.5,2.2-4.1,2.9
			c-1.6,0.7-3.3,1-5.1,1c-1.9,0-3.6-0.3-5.1-1c-1.6-0.7-2.9-1.7-4.1-2.9c-1.1-1.3-2-2.8-2.6-4.5c-0.6-1.7-0.9-3.7-0.9-5.9
			c0-2.1,0.3-4.1,0.9-5.8c0.6-1.8,1.5-3.3,2.6-4.5c1.1-1.3,2.5-2.2,4.1-2.9c1.6-0.7,3.3-1,5.1-1c1.9,0,3.6,0.3,5.1,1
			c1.6,0.7,2.9,1.7,4.1,2.9c1.1,1.3,2,2.8,2.6,4.5C903,172.1,903.3,174.1,903.3,176.2z M898.2,176.2c0-3.1-0.7-5.5-2.1-7.3
			c-1.4-1.8-3.3-2.7-5.6-2.7c-2.4,0-4.3,0.9-5.6,2.7c-1.4,1.8-2.1,4.2-2.1,7.3c0,3.1,0.7,5.5,2.1,7.3c1.4,1.8,3.3,2.7,5.6,2.7
			c2.4,0,4.3-0.9,5.6-2.7C897.5,181.7,898.2,179.3,898.2,176.2z"/>
		<path fill="#1A9AD3" d="M926.1,150l4.9-0.8V189c-1.1,0.3-2.6,0.6-4.3,0.9c-1.7,0.3-3.8,0.5-6,0.5c-2.1,0-4-0.3-5.7-1
			c-1.7-0.7-3.1-1.6-4.3-2.8c-1.2-1.2-2.1-2.7-2.8-4.5c-0.6-1.8-1-3.7-1-6c0-2.1,0.3-4,0.8-5.8c0.5-1.7,1.3-3.3,2.4-4.5
			c1-1.3,2.3-2.2,3.9-2.9c1.5-0.7,3.3-1,5.2-1c1.6,0,3,0.2,4.2,0.6c1.2,0.4,2.1,0.8,2.7,1.2V150z M926.1,168.3
			c-0.6-0.5-1.5-1-2.6-1.4c-1.1-0.5-2.3-0.7-3.7-0.7c-1.4,0-2.6,0.3-3.6,0.8c-1,0.5-1.8,1.2-2.4,2.1c-0.6,0.9-1.1,1.9-1.4,3.2
			c-0.3,1.2-0.4,2.5-0.4,3.9c0,3.2,0.8,5.6,2.4,7.4c1.6,1.7,3.7,2.6,6.3,2.6c1.3,0,2.4-0.1,3.3-0.2c0.9-0.1,1.6-0.3,2.1-0.4V168.3z"
			/>
	</g>
	<path fill="#1A9AD3" d="M457.4,174.4c0-1.1-0.2-2.2-0.5-3.1c-0.3-0.9-0.8-1.7-1.4-2.4c-0.6-0.7-1.3-1.2-2.2-1.5
		c-0.8-0.4-1.8-0.5-2.8-0.5c-1,0-1.9,0.2-2.8,0.5c-0.8,0.4-1.6,0.9-2.2,1.5c-0.6,0.7-1.1,1.5-1.4,2.4c-0.3,0.9-0.5,2-0.5,3.1
		c0,1.1,0.2,2.2,0.5,3.1c0.3,0.9,0.8,1.7,1.4,2.4c0.6,0.7,1.3,1.2,2.2,1.5c0.8,0.4,1.8,0.5,2.8,0.5c1,0,1.9-0.2,2.8-0.5
		c0.8-0.4,1.6-0.9,2.2-1.5c0.6-0.7,1.1-1.5,1.4-2.4C457.2,176.5,457.4,175.5,457.4,174.4"/>
	<path fill="#1A9AD3" d="M693.5,174.4c0-1.1-0.2-2.2-0.5-3.1c-0.3-0.9-0.8-1.7-1.4-2.4c-0.6-0.7-1.3-1.2-2.2-1.5
		c-0.8-0.4-1.8-0.5-2.8-0.5c-1,0-1.9,0.2-2.8,0.5c-0.8,0.4-1.6,0.9-2.2,1.5c-0.6,0.7-1.1,1.5-1.4,2.4c-0.3,0.9-0.5,2-0.5,3.1
		c0,1.1,0.2,2.2,0.5,3.1c0.3,0.9,0.8,1.7,1.4,2.4c0.6,0.7,1.3,1.2,2.2,1.5c0.8,0.4,1.8,0.5,2.8,0.5c1,0,1.9-0.2,2.8-0.5
		c0.8-0.4,1.6-0.9,2.2-1.5c0.6-0.7,1.1-1.5,1.4-2.4C693.4,176.5,693.5,175.5,693.5,174.4"/>
</g>
</svg>
